<svg xmlns="http://www.w3.org/2000/svg" width="3168" height="96" viewBox="0 0 792 24">
  <g transform="translate(0)">
    <path d="M1 7c3-4 5 4 8 0s5 4 8 0 4 0 6 0M1 13c3-4 5 4 8 0s5 4 8 0 4 0 6 0M1 19c3-4 5 4 8 0s5 4 8 0 4 0 6 0" fill="none" stroke="#b5e9e8" stroke-width="2" stroke-linecap="round"/>
    <path d="M1 7c3-4 5 4 8 0s5 4 8 0 4 0 6 0M1 13c3-4 5 4 8 0s5 4 8 0 4 0 6 0M1 19c3-4 5 4 8 0s5 4 8 0 4 0 6 0" fill="none" stroke="#183e4b" stroke-width=".55" stroke-linecap="round"/>
  </g>
  <g transform="translate(24)">
    <path d="M12 2c5 3 9 6 9 10 0 4-4 8-9 10-5-2-9-6-9-10 0-4 4-7 9-10Z" fill="#65aeb8" stroke="#183e4b" stroke-width="1.1"/>
    <path d="M6 11c3-2 9-2 12 0m-10 4c2-1 6-1 8 0" fill="none" stroke="#c6e8dc" stroke-width="1.2" stroke-linecap="round"/>
    <circle cx="12" cy="7" r="1.5" fill="#e2c674" stroke="#183e4b" stroke-width=".6"/>
  </g>
  <g transform="translate(48)">
    <path d="M12 22C10 17 7 13 4 11M12 22C12 16 12 9 12 4M12 22c2-5 5-9 8-11" fill="none" stroke="#263e35" stroke-width="4" stroke-linecap="round"/>
    <path d="M12 22C10 17 7 13 4 11M12 22C12 16 12 9 12 4M12 22c2-5 5-9 8-11" fill="none" stroke="#a9c877" stroke-width="2.2" stroke-linecap="round"/>
    <path d="M12 22C10 17 7 13 4 11M12 22C12 16 12 9 12 4M12 22c2-5 5-9 8-11" fill="none" stroke="#d6df99" stroke-width=".65" stroke-linecap="round"/>
  </g>
  <g transform="translate(72)">
    <path d="m12 2-8 11h5l-5 7h16l-5-7h5Z" fill="#8eae69" stroke="#203d30" stroke-width="1" stroke-linejoin="round"/>
    <path d="m12 4-5 7h4l-2 3h7l-2-3h3Z" fill="#c0cf8b"/>
    <path d="M10 18h4v4h-4Z" fill="#79583a"/>
  </g>
  <g transform="translate(96)">
    <path d="m1 21 7-14 4 7 4-11 7 18Z" fill="#9c9c90" stroke="#303b3c" stroke-width="1" stroke-linejoin="round"/>
    <path d="m6 11 2-4 3 5-2-1-1 2Zm4 3 2-3 2 3-2-1Z" fill="#ded7bd"/>
    <path d="M1 21h22" stroke="#525f5b" stroke-width="1"/>
  </g>
  <g transform="translate(120)">
    <circle cx="18" cy="5" r="3" fill="#e7c36d" stroke="#57452e" stroke-width=".7"/>
    <path d="M1 15c4-5 7-5 11 0s7 5 11 0v8H1Z" fill="#b89c68" stroke="#574b36" stroke-width=".8"/>
    <path d="M1 15c4-5 7-5 11 0s7 5 11 0M3 20h5m4 0h4m3 0h2" fill="none" stroke="#ead49a" stroke-width="1.2" stroke-linecap="round"/>
  </g>
  <g transform="translate(144)">
    <path d="M2 21h20v2H2Zm2-2V8l3-3 3 3v11H8v-7H6v7Zm9 0V6l3-3 3 3v13h-2V9h-2v10Z" fill="#c09a60" stroke="#4c4031" stroke-width=".8" stroke-linejoin="round"/>
    <path d="M6 9h2v2H6zm8-2h2v2h-2z" fill="#45392e"/>
    <path d="m3 5 2-2 2 2-2 2z" fill="#e2c682"/>
  </g>
  <g transform="translate(168)">
    <path d="m2 18 3-11 7-4 9 5 1 9-7 5H6Z" fill="#707b76" stroke="#283734" stroke-width="1"/>
    <path d="m5 17 4-2 2-5 3 2 4-5" fill="none" stroke="#c4774c" stroke-width="2" stroke-linecap="round" stroke-linejoin="round"/>
  </g>
  <g transform="translate(192)">
    <path d="m2 18 4-12 7-3 9 7-2 9-7 4H6Z" fill="#766858" stroke="#39352f" stroke-width="1"/>
    <path d="m4 16 5-4 4 1 5-6" fill="none" stroke="#dfa16b" stroke-width="2" stroke-linecap="round"/>
    <circle cx="14" cy="13" r="1.5" fill="#f0c47a"/>
  </g>
  <g transform="translate(216)">
    <path d="m2 15 3-9 6-4 6 4 5 1 1 9-7 6-9-1Z" fill="#303b3b" stroke="#171f21" stroke-width="1.2"/>
    <path d="m5 8 6-6 2 7-5 4zm5 7 6-6 6 4-1 6-7 2z" fill="#56615b"/>
    <circle cx="7" cy="17" r="1" fill="#d99b58"/>
  </g>
  <g transform="translate(240)">
    <path d="m3 20 2-12 5 3 3-9 7 18-8-2Z" fill="#b5a341" stroke="#4e4829" stroke-width="1" stroke-linejoin="round"/>
    <path d="m6 17 2-8 3 3-1 6zm7 2 3-10 3 10z" fill="#ead466"/>
  </g>
  <g transform="translate(264)">
    <path d="M3 16c1-5 4-9 9-9s8 4 9 9c-1 4-4 6-9 6s-8-2-9-6Z" fill="#b77963" stroke="#49382f" stroke-width="1"/>
    <path d="M6 12c3-2 9-2 12 0M5 16c4-2 10-2 14 0" fill="none" stroke="#e1ad8a" stroke-width="1.3" stroke-linecap="round"/>
    <path d="M9 18h6" stroke="#76534a" stroke-width="1.2"/>
  </g>
  <g transform="translate(288)">
    <path d="M2 5h20v5H2zm-1 7h22v5H1zm4 7h14v3H5Z" fill="#a8a18a" stroke="#48483f" stroke-width=".8"/>
    <path d="M3 6h18M2 14h20M6 20h12" stroke="#e3d7b7" stroke-width="1"/>
    <circle cx="13" cy="8" r="1.2" fill="#e5d8b6"/>
  </g>
  <g transform="translate(312)">
    <path d="M2 8h20v5H2zm2 6h17v5H4zM5 5h14v3H5Z" fill="#5d4b38" stroke="#342d26" stroke-width=".8"/>
    <path d="M3 10h18m-15 7h12" stroke="#b89a67" stroke-width="1"/>
    <path d="M8 4 6 2m10 3 2-3" stroke="#9cb277" stroke-width="1.4" stroke-linecap="round"/>
  </g>
  <g transform="translate(336)">
    <path d="M2 17c4-4 7-3 10 0s6 2 10-1v6H2Z" fill="#54776d" stroke="#263a36" stroke-width=".8"/>
    <path d="m5 15 3-7 3 7zm8-4 3-7 4 7z" fill="#d8e0c9" stroke="#5f7167" stroke-width=".7"/>
    <path d="M2 19h20" stroke="#a8c9af" stroke-width="1"/>
  </g>
  <g transform="translate(360)">
    <path d="M2 15c3-1 4-5 7-4s4 1 6-2 5 1 7 0l1 7c-4 0-6 5-11 4-4-1-7 3-10-1Z" fill="#303c36" stroke="#18231f" stroke-width="1"/>
    <path d="M5 15c3-2 5-1 7 0m4-3 4 1" fill="none" stroke="#d0a953" stroke-width="1.4" stroke-linecap="round"/>
  </g>
  <g transform="translate(384)">
    <path d="M3 7h18l-2 14H5Z" fill="#76847b" stroke="#303a36" stroke-width="1"/>
    <path d="m3 7 4-4h10l4 4Z" fill="#c1cbbf" stroke="#53615b" stroke-width=".8"/>
    <path d="M7 11h10m-9 4h8" stroke="#edf0df" stroke-width="1"/>
  </g>
  <g transform="translate(408)">
    <path d="m3 14 3-9 7-3 8 6-2 11-8 3-7-3Z" fill="#577f72" stroke="#263f38" stroke-width="1"/>
    <path d="m6 6 7-4 2 8-6 5zm4 9 5-5 6-2-2 11-8 3z" fill="#9bb9a0"/>
    <circle cx="17" cy="17" r="1.4" fill="#c6cc70"/>
  </g>
  <g transform="translate(432)">
    <path d="m2 12 4-8 4 4 3-6 4 9 5 4-2 7H5Z" fill="#4e9cae" stroke="#1d4755" stroke-width="1" stroke-linejoin="round"/>
    <path d="m6 8 4 1 3-7 1 12-7 7zm7 6 4-7 5 9-2 6h-7Z" fill="#b9e0d9"/>
  </g>
  <g transform="translate(456)">
    <path d="M12 22v-8m0 5-5-4m5 2 5-6" fill="none" stroke="#e5d2ac" stroke-width="1.5" stroke-linecap="round"/>
    <path d="M2 13a5 5 0 0 1 10 0Zm9-4a5 5 0 0 1 10 0Z" fill="#c9b28e" stroke="#675543" stroke-width=".8"/>
    <circle cx="5" cy="8" r=".8" fill="#f2e5c8"/><circle cx="19" cy="4" r=".8" fill="#f2e5c8"/>
  </g>
  <g transform="translate(480)">
    <path d="M12 22V9m0 8-6-4m6 1 5-6" fill="none" stroke="#77944e" stroke-width="1.5" stroke-linecap="round"/>
    <path d="M6 15c-4 0-5-3-4-6 4 0 7 2 8 6Zm6-3c0-5 3-8 7-8 1 4-2 7-7 9Z" fill="#9bbc69" stroke="#3d623e" stroke-width=".7"/>
    <circle cx="12" cy="6" r="1.5" fill="#e0c66d"/>
  </g>
  <g transform="translate(504)">
    <path d="M12 22V10m0 7L7 12m5 1 5-5" fill="none" stroke="#76533a" stroke-width="2"/>
    <path d="m12 2-7 9h4l-4 5h14l-4-5h4Z" fill="#638252" stroke="#293f30" stroke-width=".8" stroke-linejoin="round"/>
    <path d="M16 16c0 2-2 3-2 4a2 2 0 1 0 4 0c0-1-1-2-2-4Z" fill="#e3b85d"/>
  </g>
  <g transform="translate(528)">
    <path d="m2 4 8-1 2 4-4 3-1 6-5 1-2-5Zm12 1h7v3h-7zm-3 8 4-3 3 3 4-1v9h-11Z" fill="#77837a" stroke="#34403a" stroke-width=".8"/>
    <circle cx="6" cy="18" r="4" fill="#394640" stroke="#c5a15b" stroke-width="1"/><circle cx="6" cy="18" r="1" fill="#d8bd72"/>
    <path d="m3 3 1-2m7 5 3-2m3 14 3 2" stroke="#c89e5a" stroke-width="1.2"/>
  </g>
  <g transform="translate(552)">
    <path d="M2 7c3-5 15-6 20 0-2 4-7 5-12 4L7 18 5 15l3-5C5 10 3 9 2 7Z" fill="#a99b78" stroke="#473f35" stroke-width="1"/>
    <path d="m5 7 4-2 2 4 5-4 4 2m-10 7 5 1 3 4" fill="none" stroke="#d2ad68" stroke-width="1.4"/>
    <path d="m3 17 3-2 2 3-3 2zm14 2 3-2 2 3-3 2z" fill="#697c70"/>
  </g>
  <g transform="translate(576)">
    <path d="M2 3h20v18H2z" fill="#909799" stroke="#394143" stroke-width="1.2"/>
    <path d="M3 8h18M3 13h18M3 18h18M8 3v18m5-18v18m5-18v18" fill="none" stroke="#6e7779" stroke-width=".8"/>
    <path d="M4 4h16v16H4z" fill="none" stroke="#c0c5c5" stroke-width=".7"/>
    <circle cx="12" cy="12" r="2.3" fill="#b8bdbd" stroke="#4b5355" stroke-width=".8"/>
  </g>
  <g transform="translate(600)">
    <path d="M5 21c-2-5 2-9 1-17m6 17c-2-5 2-10 1-19m5 19c-2-5 2-9 1-16" fill="none" stroke="#d9c28a" stroke-width="2" stroke-linecap="round"/>
    <path d="M3 12c2 0 4 2 4 4m4-7c2 0 4 2 4 4m3-6c2 0 4 2 4 4" fill="none" stroke="#88a966" stroke-width="1.1" stroke-linecap="round"/>
  </g>
  <g transform="translate(624)">
    <path d="M5 22V7m7 15V3m7 19V8" fill="none" stroke="#718c59" stroke-width="1.8"/>
    <path d="M3 7h4v4H3zm7-5h4v5h-4zm7 5h4v4h-4z" fill="#c2a765" stroke="#4f6142" stroke-width=".7"/>
    <path d="M5 15c-3-2-4-4-4-6m13 7c3-2 4-4 4-6" fill="none" stroke="#d8dca5" stroke-width=".8"/>
  </g>
  <g transform="translate(648)">
    <path d="m2 19 4-7 4 3 3-9 4 9 4-3 2 7H2Z" fill="#777b75" stroke="#3e4441" stroke-width=".9" stroke-linejoin="round"/>
    <circle cx="7" cy="17" r="1" fill="#ded4bd"/><circle cx="15" cy="16" r="1.1" fill="#c9c5b4"/><circle cx="19" cy="18" r=".8" fill="#e4d9c4"/>
  </g>
  <g transform="translate(672)">
    <path d="m2 16 4-9 14-4 3 5-13 4-3 9-4-1Z" fill="#46514f" stroke="#222d2c" stroke-width=".9"/>
    <path d="m4 16 14-4m-10-5 8 10" fill="none" stroke="#a95e49" stroke-width="1.3"/>
    <circle cx="7" cy="9" r="1.2" fill="#c97954"/>
  </g>
  <g transform="translate(696)">
    <path d="m3 17 4-12 12-2 3 12-10 8Z" fill="#758276" stroke="#39463f" stroke-width=".8"/>
    <path d="m7 5 12-2-7 8Zm-4 12 9-6v12Z" fill="#c7c9a7"/>
    <path d="m6 7 5 4m1 2 6 4" stroke="#f0e5c4" stroke-width=".8"/>
  </g>
  <g transform="translate(720)">
    <path d="m3 20 2-14 6-4 4 9 4-6 4 15-10 2Z" fill="#26343d" stroke="#111d24" stroke-width=".9"/>
    <path d="m5 7 6-5 4 9-5 6zm9 6 5-8 4 15-10 2Z" fill="#607681"/>
    <path d="m7 18 4-7m4 9 4-9" stroke="#c2e3da" stroke-width=".8"/>
  </g>
  <g transform="translate(744)">
    <path d="m2 14 3-9 8-3 8 5 2 9-8 6-10-2Z" fill="#b5a98d" stroke="#6d6b5d" stroke-width=".9"/>
    <circle cx="8" cy="10" r="1.4" fill="#555d54"/><circle cx="16" cy="7" r="1" fill="#555d54"/><circle cx="17" cy="16" r="1.7" fill="#555d54"/>
    <circle cx="8" cy="18" r=".8" fill="#555d54"/>
  </g>
  <g transform="translate(768)">
    <path d="M5 22c6-6-4-10 2-17m5 17c5-7-1-10 5-18m2 18c5-5 1-9 4-13" fill="none" stroke="#4f805d" stroke-width="2.6" stroke-linecap="round"/>
    <path d="M6 13c-3-1-4-3-4-5m11 9c3-1 4-3 4-5m3 4c-2-1-3-3-2-5" fill="none" stroke="#a7b875" stroke-width="1.1" stroke-linecap="round"/>
  </g>
</svg>